<svg xmlns="http://www.w3.org/2000/svg" viewBox="0 0 409.05 132.91"><defs><style>.a{fill:#fff;}</style></defs><title>Artboard 8</title><path class="a" d="M67.31,132.91C29.42,132.91,0,104.22,0,66.68S29.71,0,67.31,0c14.06,0,25.34,3,37,10.67V35.15C91.14,23.54,80.73,18.93,66.71,18.93c-26.61,0-45.26,19.83-45.26,47.93s18.34,46.8,45.26,46.8c14.66,0,24.43-4,37.88-15.86v24.09c-12.82,8-23.22,11-37.28,11"/><path class="a" d="M213.2,132.91c-38,0-67.3-28.7-67.3-66.23C145.9,29,175.55,0,213.2,0c14,0,25.35,3,37,10.67V35.15C237,23.53,226.6,18.93,212.6,18.93c-26.68,0-45.28,19.83-45.28,47.93s18.31,46.8,45.28,46.8c14.6,0,24.38-4,37.84-15.86v24.09c-12.83,8-23.24,11-37.24,11"/><polygon class="a" points="320.29 3.54 309.18 22.96 388.6 22.96 388.6 129.71 409.05 129.71 409.05 3.54 320.29 3.54"/><path class="a" d="M335.51,45.41a43.75,43.75,0,1,0,43.75,43.75,43.81,43.81,0,0,0-43.75-43.75m0,69.72a26,26,0,1,1,25.76-26,26,26,0,0,1-25.76,26"/></svg>