<svg xmlns="http://www.w3.org/2000/svg" viewBox="0 0 490.65 135.33"><defs><style>.a{fill:#fff;}</style></defs><title>comicsLogo</title><path class="a" d="M487.59,76.5a6.16,6.16,0,0,1-1.37.41c-5.31.27-10.61.52-16.34.79-1.41-7.25-6.91-8.18-12.93-8.09a55.75,55.75,0,0,0-9,.6,5.53,5.53,0,0,0-5,5.9c0,3.33,1.56,5.47,4.78,6,2.93.49,6,.42,8.91.83,6.55.92,13.31,1.22,19.56,3.15,10.2,3.16,14.32,11.37,14.57,21.55s-2.92,19.07-12.94,23.29a52.66,52.66,0,0,1-40.41.72c-10.36-4-13.89-13-14.84-24.12h18.22c1.48,8,8.07,9.07,15.3,8.82a82.62,82.62,0,0,0,10.9-.93c3.58-.6,5.38-3.11,5.42-6.75s-1.79-6-5.36-6.76a59,59,0,0,0-7.39-.91c-4.31-.34-8.67-.28-12.94-.86-15.24-2.06-22.55-11.1-21.57-26.36.69-10.69,6.24-17.68,16.64-20.46a57.56,57.56,0,0,1,25.28-.81C480,54.86,486.4,62.63,487.59,76.5Z" transform="translate(-0.2 -0.02)"/><path class="a" d="M52.4,102.83l17,1.51c1.49,13.34-8.53,26.77-23,29.32a66.84,66.84,0,0,1-22.22-.15c-10.92-1.82-17.92-9.11-21-19.7a70.1,70.1,0,0,1-.29-39.39C6.81,60.47,16.26,52.91,30.64,52a62.94,62.94,0,0,1,13.93.36c13.77,2.22,21.51,10.6,24.24,26l-16.6,4.9a11.57,11.57,0,0,1-1-1.7C48.26,73.41,43.5,70,35.61,70.27c-8.34.33-14,4.5-15.34,12.93A65.3,65.3,0,0,0,19.93,102c1.29,9.64,6.41,13.91,15,14.23C44.82,116.58,49.31,113.24,52.4,102.83Z" transform="translate(-0.2 -0.02)"/><path class="a" d="M403.46,78.41l-16.79,4.8c-.41-.94-.76-1.66-1.05-2.4-3.08-7.7-7.88-10.94-15.63-10.52-8.12.44-12.88,4.21-15,12.15a42.53,42.53,0,0,0-.08,21.72c2.19,8.51,7.06,12.07,15.92,12.07,8.64,0,13.12-3.35,15.61-11.71a12.2,12.2,0,0,1,.8-1.65l16.63,1.46c1.64,10.36-6.05,22.78-15.35,26.86a44.28,44.28,0,0,1-35.87.31c-8.08-3.31-12.79-10-15-18.22a71.27,71.27,0,0,1,.2-39.88c3.38-11.38,10.89-18.46,22.62-20.72C369,51,377.69,51,386,54.25,396.6,58.47,401.82,66.79,403.46,78.41Z" transform="translate(-0.2 -0.02)"/><path class="a" d="M310.82,133.13H293.73V53h17.09Z" transform="translate(-0.2 -0.02)"/><path class="a" d="M14.38,16.62v18H6.91V.11h7.63C18.15,6.73,21.87,13.52,25.94,21L37.6.1h7.48V34.63H37.7V16.43l-.81-.31-7.4,12.23H22.42c-2.38-4-4.8-8.07-7.22-12.13Z" transform="translate(-0.2 -0.02)"/><path class="a" d="M186.83.09h7.28V34.56h-7.8l-13.9-20.81V34.56h-7V.23h7.17l14.21,22.22Z" transform="translate(-0.2 -0.02)"/><path class="a" d="M62.75,20.1V34.56H55.33V0H77.84V7.09l-14.7,1v3.56H76v7.57Z" transform="translate(-0.2 -0.02)"/><path class="a" d="M146.83.05H154V34.52h-7.14Z" transform="translate(-0.2 -0.02)"/><path class="a" d="M251.43,53.07c-9,16.24-17.84,32.28-27.07,49-9.18-16.94-17.92-33.1-26.5-48.94H179.94v80.07h18c0-7.14-.14-14.08-.14-21-.12-3.11-.27-6-.27-9.07l-.69-15.2,1-.29L199,89.13q8.55,14.91,17.07,29.8h16.33l19.08-31.68v45.89h17.75V53.07Z" transform="translate(-0.2 -0.02)"/><path class="a" d="M159.72,79.62c-2.32-12.85-8.44-23.21-22-26.15a70.69,70.69,0,0,0-23.22-.88c-12.77,1.56-21.05,9.51-24.26,22a82.07,82.07,0,0,0-2.4,18.09,83.3,83.3,0,0,0,1.34,16c2.45,14,11,23.3,24,25.18a77.43,77.43,0,0,0,19.83.26c14.23-1.67,22.75-9.82,26-23.76A75.58,75.58,0,0,0,159.72,79.62ZM140,106.2c-2.19,6.9-7.31,10-15.44,10-8.54.06-13.69-2.89-16-9.95a40.52,40.52,0,0,1,.11-25.95c2.26-6.7,7.81-10,15.58-10s13.36,3.26,15.58,10c1.38,4.2,1.75,7.87,2.21,13.18A47.37,47.37,0,0,1,140,106.2Z" transform="translate(-0.2 -0.02)"/><path class="a" d="M102.13.07H95c-4,11.36-8.07,22.77-12.23,34.52h8.32c1-2.67,1.94-5.11,2.9-7.62h9.11c1,2.61,1.85,5.07,2.76,7.59h8.3ZM95.69,20c.93-3,1.68-5.39,2.75-8.78,1.13,3.27,1.92,5.53,2.9,8.36Z" transform="translate(-0.2 -0.02)"/></svg>